<svg width="428" height="428" viewBox="0 0 428 428" fill="none" xmlns="http://www.w3.org/2000/svg">
<circle cx="157" cy="5" r="4.5" stroke="#151517"/>
<circle cx="195" cy="5" r="4.5" stroke="#151517"/>
<circle cx="233" cy="5" r="4.5" stroke="#151517"/>
<circle cx="271" cy="5" r="4.5" stroke="#151517"/>
<circle cx="81" cy="45" r="4.5" stroke="#151517"/>
<circle cx="119" cy="45" r="4.5" stroke="#151517"/>
<circle cx="157" cy="43" r="9.5" stroke="#151517"/>
<circle cx="195" cy="43" r="9.5" stroke="#151517"/>
<circle cx="233" cy="43" r="9.5" stroke="#151517"/>
<circle cx="271" cy="43" r="9.5" stroke="#151517"/>
<circle cx="309" cy="45" r="4.5" stroke="#151517"/>
<circle cx="347" cy="45" r="4.5" stroke="#151517"/>
<circle cx="43" cy="83" r="4.5" stroke="#151517"/>
<circle cx="80" cy="83" r="4.5" stroke="#151517"/>
<circle cx="118" cy="81" r="9.5" stroke="#151517"/>
<circle cx="156" cy="81" r="14.5" stroke="#151517"/>
<circle cx="194" cy="81" r="14.5" stroke="#151517"/>
<circle cx="232" cy="81" r="14.5" stroke="#151517"/>
<circle cx="270" cy="81" r="14.5" stroke="#151517"/>
<circle cx="308" cy="81" r="9.5" stroke="#151517"/>
<circle cx="346" cy="83" r="4.5" stroke="#151517"/>
<circle cx="385" cy="83" r="4.5" stroke="#151517"/>
<circle cx="43" cy="121" r="4.5" stroke="#151517"/>
<circle cx="80" cy="119" r="9.5" stroke="#151517"/>
<circle cx="118" cy="119" r="14.5" stroke="#151517"/>
<circle cx="156" cy="119" r="14.5" stroke="#151517"/>
<circle cx="194" cy="119" r="14.5" stroke="#151517"/>
<circle cx="232" cy="119" r="14.5" stroke="#151517"/>
<circle cx="270" cy="119" r="14.5" stroke="#151517"/>
<circle cx="308" cy="119" r="14.5" stroke="#151517"/>
<circle cx="346" cy="119" r="9.5" stroke="#151517"/>
<circle cx="385" cy="121" r="4.5" stroke="#151517"/>
<circle cx="5" cy="157" r="4.5" stroke="#151517"/>
<circle cx="43" cy="157" r="9.5" stroke="#151517"/>
<circle cx="80" cy="157" r="14.5" stroke="#151517"/>
<circle cx="118" cy="157" r="14.5" stroke="#151517"/>
<circle cx="156" cy="157" r="14.5" stroke="#151517"/>
<circle cx="194" cy="157" r="14.5" stroke="#151517"/>
<circle cx="232" cy="157" r="14.5" stroke="#151517"/>
<circle cx="270" cy="157" r="14.5" stroke="#151517"/>
<circle cx="308" cy="157" r="14.5" stroke="#151517"/>
<circle cx="346" cy="157" r="14.5" stroke="#151517"/>
<circle cx="385" cy="157" r="9.5" stroke="#151517"/>
<circle cx="423" cy="157" r="4.5" stroke="#151517"/>
<circle cx="5" cy="195" r="4.5" stroke="#151517"/>
<circle cx="43" cy="195" r="9.5" stroke="#151517"/>
<circle cx="80" cy="195" r="14.5" stroke="#151517"/>
<circle cx="118" cy="195" r="14.5" stroke="#151517"/>
<circle cx="156" cy="195" r="14.5" stroke="#151517"/>
<circle cx="194" cy="195" r="14.5" stroke="#151517"/>
<circle cx="232" cy="195" r="14.5" stroke="#151517"/>
<circle cx="270" cy="195" r="14.5" stroke="#151517"/>
<circle cx="308" cy="195" r="14.5" stroke="#151517"/>
<circle cx="346" cy="195" r="14.5" stroke="#151517"/>
<circle cx="385" cy="195" r="9.5" stroke="#151517"/>
<circle cx="423" cy="195" r="4.5" stroke="#151517"/>
<circle cx="5" cy="233" r="4.5" stroke="#151517"/>
<circle cx="43" cy="233" r="9.5" stroke="#151517"/>
<circle cx="80" cy="233" r="14.5" stroke="#151517"/>
<circle cx="118" cy="233" r="14.5" stroke="#151517"/>
<circle cx="232" cy="233" r="14.5" stroke="#151517"/>
<circle cx="270" cy="233" r="14.5" stroke="#151517"/>
<circle cx="308" cy="233" r="14.5" stroke="#151517"/>
<circle cx="346" cy="233" r="14.5" stroke="#151517"/>
<circle cx="385" cy="233" r="9.5" stroke="#151517"/>
<circle cx="423" cy="233" r="4.5" stroke="#151517"/>
<circle cx="5" cy="271" r="4.5" stroke="#151517"/>
<circle cx="43" cy="271" r="9.5" stroke="#151517"/>
<circle cx="80" cy="271" r="14.5" stroke="#151517"/>
<circle cx="118" cy="271" r="14.5" stroke="#151517"/>
<circle cx="232" cy="271" r="14.5" stroke="#151517"/>
<circle cx="270" cy="271" r="14.5" stroke="#151517"/>
<circle cx="308" cy="271" r="14.5" stroke="#151517"/>
<circle cx="346" cy="271" r="14.5" stroke="#151517"/>
<circle cx="385" cy="271" r="9.5" stroke="#151517"/>
<circle cx="423" cy="271" r="4.5" stroke="#151517"/>
<circle cx="43" cy="311" r="4.5" stroke="#151517"/>
<circle cx="80" cy="309" r="14.5" stroke="#151517"/>
<circle cx="118" cy="309" r="14.5" stroke="#151517"/>
<circle cx="156" cy="233" r="14.5" stroke="#151517"/>
<circle cx="194" cy="233" r="14.5" stroke="#151517"/>
<circle cx="232" cy="309" r="14.5" stroke="#151517"/>
<circle cx="270" cy="309" r="14.5" stroke="#151517"/>
<circle cx="308" cy="309" r="14.5" stroke="#151517"/>
<circle cx="346" cy="309" r="9.5" stroke="#151517"/>
<circle cx="385" cy="311" r="4.5" stroke="#151517"/>
<circle cx="43" cy="349" r="4.5" stroke="#151517"/>
<circle cx="80" cy="349" r="4.5" stroke="#151517"/>
<circle cx="118" cy="347" r="9.5" stroke="#151517"/>
<circle cx="156" cy="347" r="14.5" stroke="#151517"/>
<circle cx="194" cy="347" r="14.5" stroke="#151517"/>
<circle cx="232" cy="347" r="14.5" stroke="#151517"/>
<circle cx="270" cy="347" r="14.5" stroke="#151517"/>
<circle cx="308" cy="347" r="9.5" stroke="#151517"/>
<circle cx="346" cy="349" r="4.5" stroke="#151517"/>
<circle cx="157" cy="5" r="4.5" stroke="#151517"/>
<circle cx="195" cy="5" r="4.5" stroke="#151517"/>
<circle cx="233" cy="5" r="4.5" stroke="#151517"/>
<circle cx="271" cy="5" r="4.5" stroke="#151517"/>
<circle cx="81" cy="45" r="4.5" stroke="#151517"/>
<circle cx="119" cy="45" r="4.5" stroke="#151517"/>
<circle cx="157" cy="43" r="9.5" stroke="#151517"/>
<circle cx="195" cy="43" r="9.5" stroke="#151517"/>
<circle cx="233" cy="43" r="9.5" stroke="#151517"/>
<circle cx="271" cy="43" r="9.5" stroke="#151517"/>
<circle cx="309" cy="45" r="4.5" stroke="#151517"/>
<circle cx="347" cy="45" r="4.5" stroke="#151517"/>
<circle cx="43" cy="83" r="4.5" stroke="#151517"/>
<circle cx="80" cy="83" r="4.5" stroke="#151517"/>
<circle cx="118" cy="81" r="9.5" stroke="#151517"/>
<circle cx="156" cy="81" r="14.5" stroke="#151517"/>
<circle cx="194" cy="81" r="14.5" stroke="#151517"/>
<circle cx="232" cy="81" r="14.5" stroke="#151517"/>
<circle cx="270" cy="81" r="14.5" stroke="#151517"/>
<circle cx="308" cy="81" r="9.5" stroke="#151517"/>
<circle cx="346" cy="83" r="4.5" stroke="#151517"/>
<circle cx="43" cy="121" r="4.5" stroke="#151517"/>
<circle cx="80" cy="119" r="9.5" stroke="#151517"/>
<circle cx="118" cy="119" r="14.5" stroke="#151517"/>
<circle cx="156" cy="119" r="14.5" stroke="#151517"/>
<circle cx="194" cy="119" r="14.5" stroke="#151517"/>
<circle cx="232" cy="119" r="14.5" stroke="#151517"/>
<circle cx="270" cy="119" r="14.5" stroke="#151517"/>
<circle cx="308" cy="119" r="14.5" stroke="#151517"/>
<circle cx="346" cy="119" r="9.5" stroke="#151517"/>
<circle cx="43" cy="157" r="9.5" stroke="#151517"/>
<circle cx="80" cy="157" r="14.5" stroke="#151517"/>
<circle cx="118" cy="157" r="14.5" stroke="#151517"/>
<circle cx="156" cy="157" r="14.5" stroke="#151517"/>
<circle cx="194" cy="157" r="14.5" stroke="#151517"/>
<circle cx="232" cy="157" r="14.5" stroke="#151517"/>
<circle cx="270" cy="157" r="14.5" stroke="#151517"/>
<circle cx="308" cy="157" r="14.5" stroke="#151517"/>
<circle cx="346" cy="157" r="14.5" stroke="#151517"/>
<circle cx="385" cy="157" r="9.5" stroke="#151517"/>
<circle cx="43" cy="195" r="9.5" stroke="#151517"/>
<circle cx="80" cy="195" r="14.5" stroke="#151517"/>
<circle cx="118" cy="195" r="14.5" stroke="#151517"/>
<circle cx="156" cy="195" r="14.5" stroke="#151517"/>
<circle cx="194" cy="195" r="14.5" stroke="#151517"/>
<circle cx="232" cy="195" r="14.5" stroke="#151517"/>
<circle cx="270" cy="195" r="14.5" stroke="#151517"/>
<circle cx="308" cy="195" r="14.5" stroke="#151517"/>
<circle cx="346" cy="195" r="14.5" stroke="#151517"/>
<circle cx="385" cy="195" r="9.5" stroke="#151517"/>
<circle cx="43" cy="233" r="9.5" stroke="#151517"/>
<circle cx="80" cy="233" r="14.5" stroke="#151517"/>
<circle cx="118" cy="233" r="14.5" stroke="#151517"/>
<circle cx="232" cy="233" r="14.5" stroke="#151517"/>
<circle cx="270" cy="233" r="14.5" stroke="#151517"/>
<circle cx="308" cy="233" r="14.5" stroke="#151517"/>
<circle cx="346" cy="233" r="14.5" stroke="#151517"/>
<circle cx="385" cy="233" r="9.5" stroke="#151517"/>
<circle cx="43" cy="271" r="9.5" stroke="#151517"/>
<circle cx="80" cy="271" r="14.5" stroke="#151517"/>
<circle cx="118" cy="271" r="14.5" stroke="#151517"/>
<circle cx="232" cy="271" r="14.5" stroke="#151517"/>
<circle cx="270" cy="271" r="14.5" stroke="#151517"/>
<circle cx="308" cy="271" r="14.5" stroke="#151517"/>
<circle cx="346" cy="271" r="14.5" stroke="#151517"/>
<circle cx="385" cy="271" r="9.5" stroke="#151517"/>
<circle cx="43" cy="311" r="4.5" stroke="#151517"/>
<circle cx="80" cy="309" r="14.5" stroke="#151517"/>
<circle cx="118" cy="309" r="14.5" stroke="#151517"/>
<circle cx="156" cy="271" r="14.5" stroke="#151517"/>
<circle cx="156" cy="309" r="14.5" stroke="#151517"/>
<circle cx="194" cy="271" r="14.5" stroke="#151517"/>
<circle cx="194" cy="309" r="14.5" stroke="#151517"/>
<circle cx="156" cy="233" r="14.5" stroke="#151517"/>
<circle cx="194" cy="233" r="14.5" stroke="#151517"/>
<circle cx="232" cy="309" r="14.5" stroke="#151517"/>
<circle cx="270" cy="309" r="14.5" stroke="#151517"/>
<circle cx="308" cy="309" r="14.5" stroke="#151517"/>
<circle cx="346" cy="309" r="9.5" stroke="#151517"/>
<circle cx="43" cy="349" r="4.5" stroke="#151517"/>
<circle cx="80" cy="349" r="4.5" stroke="#151517"/>
<circle cx="118" cy="347" r="9.5" stroke="#151517"/>
<circle cx="156" cy="347" r="14.5" stroke="#151517"/>
<circle cx="194" cy="347" r="14.5" stroke="#151517"/>
<circle cx="232" cy="347" r="14.5" stroke="#151517"/>
<circle cx="270" cy="347" r="14.5" stroke="#151517"/>
<circle cx="308" cy="347" r="9.5" stroke="#151517"/>
<circle cx="346" cy="349" r="4.5" stroke="#151517"/>
<circle cx="385" cy="349" r="4.5" stroke="#151517"/>
<circle cx="81" cy="387" r="4.5" stroke="#151517"/>
<circle cx="119" cy="387" r="4.5" stroke="#151517"/>
<circle cx="157" cy="385" r="9.5" stroke="#151517"/>
<circle cx="195" cy="385" r="9.5" stroke="#151517"/>
<circle cx="233" cy="385" r="9.5" stroke="#151517"/>
<circle cx="271" cy="385" r="9.5" stroke="#151517"/>
<circle cx="309" cy="387" r="4.5" stroke="#151517"/>
<circle cx="347" cy="387" r="4.5" stroke="#151517"/>
<circle cx="157" cy="423" r="4.5" stroke="#151517"/>
<circle cx="195" cy="423" r="4.5" stroke="#151517"/>
<circle cx="233" cy="423" r="4.5" stroke="#151517"/>
<circle cx="271" cy="423" r="4.5" stroke="#151517"/>
</svg>
